<svg xmlns="http://www.w3.org/2000/svg" xml:space="preserve" version="1.1">
    <symbol id="updown" viewbox="0 -10 100 110"><g><path style="fill-opacity: var(--up-opacity, 1); fill: var(--up-color, #888888);" d="M1.5 6.5l6 -6 5.962 6c-0.984,0 -4.962,0 -11.962,0z"/><path style="fill-opacity: var(--down-opacity, 1); fill: var(--down-color, #888888);" d="M13.5 9.5l-6 6 -6 -6c0,0 12,0 12,0z"/></g></symbol>
    <symbol id="link" viewBox="0 0 24 24" fill="none" stroke="currentColor" stroke-width="2" stroke-linecap="round" stroke-linejoin="round" class="lucide lucide-link"><path d="M10 13a5 5 0 0 0 7.54.54l3-3a5 5 0 0 0-7.07-7.07l-1.72 1.71"></path><path d="M14 11a5 5 0 0 0-7.54-.54l-3 3a5 5 0 0 0 7.07 7.07l1.71-1.71"></path></symbol>
    <symbol id="x" viewBox="0 0 24 24" stroke="currentColor" stroke-width="2" stroke-linecap="round" stroke-linejoin="round"> <line x1="18" y1="6" x2="6" y2="18" /><line x1="6" y1="6" x2="18" y2="18" /></symbol>
</svg>